<svg version="1.1" id="Layer_1" xmlns="http://www.w3.org/2000/svg" xmlns:xlink="http://www.w3.org/1999/xlink" x="0px" y="0px"
	 width="100%" viewBox="0 0 683 840" enable-background="new 0 0 683 840" xml:space="preserve">
<path fill="#24BEED" opacity="1.000000" stroke="none" 
	d="
M1.000004,682.000000 
	C1.000000,677.643127 1.000000,673.286194 1.356470,668.801147 
	C2.141716,666.821960 2.908081,664.978088 2.947322,663.118896 
	C3.364149,643.371155 3.531570,623.617554 4.036781,603.872437 
	C4.527621,584.688965 5.253021,565.510376 6.026965,546.335693 
	C6.545854,533.480164 7.268601,520.631714 8.009209,507.786407 
	C8.947821,491.506805 10.019732,475.234924 10.990997,458.957153 
	C11.697899,447.109894 12.313375,435.257172 13.013877,423.409515 
	C13.285621,418.813538 13.622361,414.219727 14.027597,409.633575 
	C15.327008,394.928009 16.690090,380.228058 17.992863,365.522766 
	C18.717525,357.342926 19.265896,349.146301 20.081537,340.975983 
	C21.300657,328.763916 22.727232,316.572693 23.984137,304.364227 
	C24.757013,296.857147 25.276104,289.323303 26.091419,281.821320 
	C27.309866,270.610016 28.733795,259.421143 29.983393,248.213028 
	C30.782354,241.046799 31.311413,233.849640 32.164581,226.690536 
	C33.342625,216.805328 34.789001,206.952148 35.977409,197.068054 
	C37.110565,187.643555 37.914673,178.178238 39.127819,168.764923 
	C40.607067,157.286728 42.146652,145.807983 44.057400,134.396011 
	C46.064758,122.407005 47.703712,110.258362 51.015442,98.609276 
	C55.671856,82.230225 63.981979,67.546837 75.000107,54.377052 
	C84.677368,42.809975 95.473923,32.747776 109.273262,26.061911 
	C105.812607,30.528721 101.690811,34.465961 98.332893,38.972393 
	C86.651329,54.649475 81.019409,72.825920 79.217064,91.902504 
	C73.847038,148.740692 68.164734,205.577560 64.437309,262.534882 
	C60.644520,320.490936 58.639816,378.575714 56.577465,436.629883 
	C54.698105,489.532959 53.475533,542.465088 52.557137,595.394775 
	C51.843803,636.505798 51.573532,677.638184 52.042278,718.750366 
	C52.269474,738.677246 54.618851,758.581421 56.053783,778.492493 
	C57.335938,796.283691 66.673714,807.355591 83.966652,811.718811 
	C84.450623,811.841003 84.944412,811.923828 85.432686,812.029358 
	C107.805214,816.862915 129.068344,813.299927 149.562592,803.657532 
	C151.291855,802.843872 153.288239,802.598022 154.996399,802.389038 
	C151.513504,805.334167 148.265106,808.073181 144.862900,810.605591 
	C134.172165,818.563171 123.343033,826.373596 110.247261,829.952637 
	C98.860619,833.064575 87.310165,834.110229 75.423981,833.129761 
	C60.923214,831.933533 47.245270,828.594727 34.789314,820.951477 
	C22.630440,813.490540 13.120085,803.366699 10.348812,789.240540 
	C7.243388,773.411011 5.597356,757.248840 4.144413,741.156677 
	C3.073721,729.298096 3.270149,717.320679 3.024227,705.393738 
	C2.886872,698.732056 3.093149,692.062622 2.908913,685.403259 
	C2.877066,684.252075 1.666250,683.133606 1.000004,682.000000 
z"/>
<path fill="#FE6252" opacity="1.000000" stroke="none" 
	d="
M200.531342,1.000002 
	C201.809479,1.665287 202.554596,2.805983 203.437973,2.925615 
	C220.901459,5.290576 235.316650,13.509705 246.827576,26.490896 
	C258.828979,40.025246 266.077240,56.227806 269.860107,73.784874 
	C271.951141,83.489845 272.936371,93.464409 273.916748,103.367287 
	C274.681061,111.088005 275.090454,118.895126 274.915924,126.647156 
	C274.517395,144.347458 273.740601,162.040833 272.968506,179.730545 
	C272.443237,191.764694 271.840668,203.800674 270.957428,215.812668 
	C269.812683,231.381088 268.338257,246.925140 267.037476,262.482330 
	C266.324890,271.004608 265.837555,279.548828 264.960815,288.053528 
	C263.836609,298.959229 262.361786,309.828369 261.161316,320.726868 
	C260.620819,325.633820 260.240448,330.567780 260.030243,335.499817 
	C259.600159,345.592560 259.197754,355.690002 259.027863,365.789581 
	C258.622589,389.883545 258.358948,413.979889 257.972778,438.837891 
	C241.266327,450.303680 224.625244,461.006866 208.104370,471.632721 
	C208.104370,471.246979 208.062714,470.418823 208.110367,469.595825 
	C210.025604,436.526978 211.811752,403.449860 213.905716,370.392303 
	C216.567993,328.362579 219.929718,286.372589 222.165161,244.321655 
	C224.647751,197.621414 226.397766,150.878769 228.058350,104.140083 
	C228.681656,86.596176 223.904724,70.047913 214.553955,55.231655 
	C198.022888,29.038185 175.200546,13.090638 142.981598,13.929256 
	C137.607361,14.069140 132.260284,15.251714 127.068314,15.631818 
	C140.343140,9.071735 153.704468,3.697919 168.461975,2.890449 
	C169.007507,2.860599 169.488785,1.656746 170.000000,1.000002 
	C180.020889,1.000000 190.041794,1.000000 200.531342,1.000002 
z"/>
<path fill="#24BEED" opacity="1.000000" stroke="none" 
	d="
M403.468658,841.000000 
	C402.372131,840.336670 401.787750,839.142578 401.110107,839.087158 
	C379.983887,837.357361 359.896667,831.410706 341.047546,822.190125 
	C330.364075,816.963989 320.542267,809.665405 311.067230,802.348572 
	C294.533600,789.581177 284.272919,772.344604 278.805267,752.333496 
	C274.925385,738.133545 273.644257,723.670654 275.884979,708.976807 
	C276.601898,704.275635 276.519318,699.458435 277.022400,694.717651 
	C278.610199,679.755737 280.253723,664.799377 281.969971,649.851624 
	C283.236938,638.816833 284.479340,627.774536 286.048004,616.780518 
	C287.656525,605.507324 289.523102,594.266663 291.506256,583.052368 
	C293.711853,570.580139 296.173401,558.063538 294.784698,545.400208 
	C294.205566,540.119202 291.971863,534.700134 289.274017,530.049561 
	C285.659821,523.819275 277.412933,522.327393 269.995361,525.508423 
	C268.216370,526.271362 266.494354,527.167175 264.363190,527.693420 
	C280.156189,515.549072 297.819885,509.178009 317.833710,514.887329 
	C336.168396,520.117615 347.328674,532.547668 344.589935,553.980652 
	C343.114746,565.525208 341.515442,577.071838 339.414886,588.515198 
	C333.285126,621.908508 326.736237,655.252563 325.936920,689.329712 
	C324.818451,737.016418 344.785828,772.440186 387.929443,793.941406 
	C412.500031,806.186462 438.920471,810.716553 466.045258,812.487915 
	C500.965363,814.768372 533.970520,808.643616 564.622864,791.281311 
	C565.673767,790.685974 567.021301,790.614258 568.273804,790.652100 
	C567.877808,791.501587 567.522034,792.125183 566.987244,792.475281 
	C547.690552,805.103760 527.909180,816.847778 506.333893,825.252319 
	C490.619720,831.373596 474.745850,836.952087 457.880157,839.083679 
	C457.183838,839.171692 456.623627,840.336731 456.000000,841.000000 
	C438.645782,841.000000 421.291534,841.000000 403.468658,841.000000 
z"/>
<path fill="#FD6252" opacity="1.000000" stroke="none" 
	d="
M684.000000,664.531433 
	C683.359802,665.284790 682.269592,665.439270 682.143921,665.873108 
	C675.882080,687.492615 663.362183,705.285217 648.695374,721.949280 
	C635.047363,737.455811 619.932739,751.293213 603.282593,763.700989 
	C603.830444,762.276550 604.747009,761.087036 605.807922,760.044495 
	C624.050049,742.119141 638.580872,721.537170 649.594482,698.492676 
	C655.987915,685.115173 660.515137,671.289856 657.985718,656.101196 
	C655.296021,639.949951 643.118896,632.559021 627.703369,637.704407 
	C626.834717,637.994385 625.833618,637.887573 624.894165,637.965515 
	C638.054565,628.643799 651.769836,621.395264 668.638428,626.940674 
	C674.868164,628.988586 679.005554,633.290283 681.183777,639.522705 
	C681.696350,640.989319 682.675415,642.292847 683.719971,643.335693 
	C684.000000,650.020935 684.000000,657.041931 684.000000,664.531433 
z"/>
<path fill="#364144" opacity="1.000000" stroke="none" 
	d="
M624.936707,637.978394 
	C625.833618,637.887573 626.834717,637.994385 627.703369,637.704407 
	C643.118896,632.559021 655.296021,639.949951 657.985718,656.101196 
	C660.515137,671.289856 655.987915,685.115173 649.594482,698.492676 
	C638.580872,721.537170 624.050049,742.119141 605.807922,760.044495 
	C604.747009,761.087036 603.830444,762.276550 602.928284,763.746399 
	C603.009827,764.095154 603.002686,764.003906 602.692017,763.963257 
	C602.257935,764.313171 602.134460,764.703735 602.010925,765.094360 
	C602.010925,765.094360 602.010559,765.010498 601.689331,764.925537 
	C601.248901,765.258545 601.129639,765.676453 601.010376,766.094360 
	C601.010376,766.094360 601.010132,766.010071 600.689331,765.925659 
	C600.249084,766.258911 600.129517,766.676575 600.010010,767.094238 
	C600.010010,767.094238 600.014343,767.026672 599.750061,766.809692 
	C598.996948,767.090698 598.508179,767.588623 598.019348,768.086548 
	C590.944458,773.647278 583.869568,779.208008 576.132874,784.889648 
	C575.315735,785.375427 575.160400,785.740295 575.005066,786.105103 
	C575.005066,786.105103 575.006531,786.008057 574.670044,785.943481 
	C574.234375,786.286316 574.135254,786.693726 574.036133,787.101135 
	C574.036133,787.101135 574.008179,787.027283 573.758667,786.726074 
	C573.001953,786.986267 572.494751,787.547668 571.987610,788.109070 
	C571.987610,788.109070 572.006714,788.027771 571.725830,787.824463 
	C570.316162,788.480469 569.187317,789.339661 568.058533,790.198914 
	C568.058533,790.198914 568.193359,790.164673 568.211975,790.231628 
	C567.021301,790.614258 565.673767,790.685974 564.622864,791.281311 
	C533.970520,808.643616 500.965363,814.768372 466.045258,812.487915 
	C438.920471,810.716553 412.500031,806.186462 387.929443,793.941406 
	C344.785828,772.440186 324.818451,737.016418 325.936920,689.329712 
	C326.736237,655.252563 333.285126,621.908508 339.414886,588.515198 
	C341.515442,577.071838 343.114746,565.525208 344.589935,553.980652 
	C347.328674,532.547668 336.168396,520.117615 317.833710,514.887329 
	C297.819885,509.178009 280.156189,515.549072 263.986420,527.740356 
	C263.992584,528.095764 263.998840,527.993469 263.690948,527.967346 
	C263.262207,528.328674 263.141357,528.716187 263.020508,529.103638 
	C263.020508,529.103638 263.018921,529.036011 262.752869,528.814575 
	C261.995361,529.100281 261.503937,529.607361 261.012512,530.114441 
	C259.201996,531.729309 257.391510,533.344177 254.933228,535.207642 
	C254.214432,535.989868 254.143417,536.523438 254.072388,537.057007 
	C254.072388,537.057007 254.020935,537.000977 253.676804,536.883301 
	C253.229279,537.208435 253.125900,537.651184 253.022522,538.093994 
	C253.022522,538.093994 253.009827,538.025635 252.776581,537.740601 
	C250.569962,539.214355 248.436905,540.825317 246.648499,542.755554 
	C232.460571,558.068665 222.137146,575.826294 214.081085,594.957886 
	C198.444839,632.090942 189.483475,671.115723 182.137970,710.518494 
	C178.730133,728.798889 177.132339,747.413086 173.874908,765.726685 
	C172.222473,775.016846 168.707596,783.975647 166.034714,793.084290 
	C166.034714,793.084290 166.025009,793.015381 165.711945,792.928162 
	C165.264450,793.258606 165.130035,793.676270 164.995605,794.093933 
	C164.995605,794.093933 164.999741,794.000732 164.727142,793.937378 
	C164.234085,794.227051 164.013641,794.580139 163.793213,794.933289 
	C162.770294,795.891846 161.747375,796.850403 160.103790,797.913086 
	C159.320480,798.378967 159.157822,798.740662 158.995178,799.102417 
	C158.995193,799.102417 158.996948,798.997742 158.680695,798.970459 
	C158.252579,799.329712 158.140732,799.716125 158.028885,800.102600 
	C158.028885,800.102600 158.022110,800.035278 157.712051,799.793335 
	C156.616440,800.399231 155.830887,801.247009 155.045349,802.094788 
	C155.045349,802.094788 155.098679,802.025635 155.129608,802.057007 
	C153.288239,802.598022 151.291855,802.843872 149.562592,803.657532 
	C129.068344,813.299927 107.805214,816.862915 85.432686,812.029358 
	C84.944412,811.923828 84.450623,811.841003 83.966652,811.718811 
	C66.673714,807.355591 57.335938,796.283691 56.053783,778.492493 
	C54.618851,758.581421 52.269474,738.677246 52.042278,718.750366 
	C51.573532,677.638184 51.843803,636.505798 52.557137,595.394775 
	C53.475533,542.465088 54.698105,489.532959 56.577465,436.629883 
	C58.639816,378.575714 60.644520,320.490936 64.437309,262.534882 
	C68.164734,205.577560 73.847038,148.740692 79.217064,91.902504 
	C81.019409,72.825920 86.651329,54.649475 98.332893,38.972393 
	C101.690811,34.465961 105.812607,30.528721 109.273262,26.061911 
	C108.962364,25.793314 109.021538,25.861628 109.169540,26.226772 
	C109.850456,26.099079 110.383369,25.606243 110.916290,25.113409 
	C115.081436,22.810690 119.246582,20.507967 124.012848,17.999260 
	C124.746529,17.498474 124.879089,17.203674 125.011658,16.908878 
	C125.011658,16.908878 125.004547,17.001091 125.318085,17.094292 
	C126.091507,16.759623 126.551384,16.331755 127.011261,15.903889 
	C127.011261,15.903890 126.982155,15.987127 126.941406,15.969799 
	C132.260284,15.251714 137.607361,14.069140 142.981598,13.929256 
	C175.200546,13.090638 198.022888,29.038185 214.553955,55.231655 
	C223.904724,70.047913 228.681656,86.596176 228.058350,104.140083 
	C226.397766,150.878769 224.647751,197.621414 222.165161,244.321655 
	C219.929718,286.372589 216.567993,328.362579 213.905716,370.392303 
	C211.811752,403.449860 210.025604,436.526978 208.110367,469.595825 
	C208.062714,470.418823 208.104370,471.246979 208.104370,471.632721 
	C224.625244,461.006866 241.266327,450.303680 258.082092,439.294434 
	C265.278564,435.748199 272.300415,432.508057 279.977661,429.159607 
	C281.099640,428.671265 281.566162,428.291260 282.032684,427.911255 
	C282.032684,427.911255 282.012878,428.012177 282.318359,428.099976 
	C283.087494,427.760040 283.551117,427.332275 284.014740,426.904480 
	C284.014740,426.904480 283.995636,426.986481 284.320862,427.184021 
	C302.317291,421.355927 320.307617,416.774536 338.877136,414.380219 
	C368.567505,410.552032 397.405792,413.162170 424.808685,425.714355 
	C465.058411,444.151245 486.137573,475.419952 484.538300,520.038940 
	C483.964935,536.035645 480.350616,551.978210 477.459991,567.824280 
	C473.106506,591.689453 467.331146,615.323242 463.758331,639.293579 
	C461.130524,656.923645 462.322815,674.857971 467.157257,692.265381 
	C467.720398,694.293213 469.096954,696.095093 470.096436,698.001709 
	C470.096436,698.001709 470.029846,697.996338 469.731873,698.165833 
	C469.908600,699.394775 470.383301,700.454224 470.858032,701.513672 
	C472.506958,704.774719 474.155853,708.035706 476.033569,711.976562 
	C476.868713,712.751648 477.475098,712.846985 478.081451,712.942322 
	C478.081451,712.942322 478.017303,712.963562 477.927612,713.316772 
	C478.259003,713.767944 478.680054,713.865845 479.101135,713.963745 
	C479.101135,713.963684 479.013000,713.975708 478.992493,714.434570 
	C479.501892,714.928101 480.031769,714.962830 480.561676,714.997498 
	C480.773132,714.915527 480.929565,714.976013 480.630402,715.559814 
	C481.055420,717.134949 481.690674,718.537659 482.735718,719.491455 
	C494.221039,729.973694 508.037323,733.036865 523.032227,731.443298 
	C539.449829,729.698669 552.778564,721.336731 564.720398,710.583740 
	C583.569824,693.610901 597.640381,672.741577 611.826965,651.994019 
	C612.159180,651.508118 611.909363,650.624146 611.931030,649.925842 
	C611.931030,649.925842 611.968323,649.987976 612.292908,650.105713 
	C612.741516,649.781311 612.865540,649.339172 612.989563,648.897095 
	C612.989563,648.897095 612.993774,648.996399 613.302246,649.018799 
	C613.747437,648.609497 613.884155,648.177795 614.020874,647.746155 
	C616.115173,645.578308 618.209473,643.410461 620.930176,641.106018 
	C621.705933,640.614746 621.855286,640.260071 622.004639,639.905396 
	C622.004639,639.905396 621.997437,639.994873 622.307983,640.090820 
	C623.413025,639.426270 624.207458,638.665771 625.001831,637.905273 
	C625.001831,637.905273 624.979248,637.991272 624.936707,637.978394 
z"/>
<path fill="#FE6252" opacity="1.000000" stroke="none" 
	d="
M470.055756,697.573730 
	C469.096954,696.095093 467.720398,694.293213 467.157257,692.265381 
	C462.322815,674.857971 461.130524,656.923645 463.758331,639.293579 
	C467.331146,615.323242 473.106506,591.689453 477.459991,567.824280 
	C480.350616,551.978210 483.964935,536.035645 484.538300,520.038940 
	C486.137573,475.419952 465.058411,444.151245 424.808685,425.714355 
	C397.405792,413.162170 368.567505,410.552032 338.877136,414.380219 
	C320.307617,416.774536 302.317291,421.355927 284.279907,427.174194 
	C298.488403,420.306763 312.746796,412.796509 327.725861,407.223267 
	C343.015625,401.534393 358.800415,396.723541 374.759064,393.408356 
	C391.726471,389.883667 409.136292,390.328400 426.517548,391.825378 
	C443.321930,393.272675 459.265625,397.250763 474.123535,405.078491 
	C497.444153,417.364716 510.771393,436.963501 516.095520,462.646332 
	C520.716187,484.935638 516.914307,506.483887 510.023132,527.321533 
	C499.242828,559.919250 487.007874,592.037659 475.278229,624.318848 
	C469.046265,641.469788 465.876129,659.090027 467.093842,677.322388 
	C467.537537,683.965576 469.011261,690.540039 470.055756,697.573730 
z"/>
<path fill="#24BDEB" opacity="1.000000" stroke="none" 
	d="
M611.614014,650.055725 
	C611.909363,650.624146 612.159180,651.508118 611.826965,651.994019 
	C597.640381,672.741577 583.569824,693.610901 564.720398,710.583740 
	C552.778564,721.336731 539.449829,729.698669 523.032227,731.443298 
	C508.037323,733.036865 494.221039,729.973694 482.735718,719.491455 
	C481.690674,718.537659 481.055420,717.134949 480.619995,715.697510 
	C492.371735,722.125183 504.249939,720.880737 516.098694,717.388611 
	C534.644958,711.922546 550.850586,702.368958 565.241455,689.385010 
	C579.498840,676.521606 594.267639,664.224670 608.832520,651.702942 
	C609.554871,651.081909 610.471069,650.686218 611.614014,650.055725 
z"/>
<path fill="#FD6252" opacity="1.000000" stroke="none" 
	d="
M624.668335,637.949646 
	C624.207458,638.665771 623.413025,639.426270 622.263306,640.087036 
	C622.716980,639.322876 623.525879,638.658447 624.668335,637.949646 
z"/>
<path fill="#FE6252" opacity="1.000000" stroke="none" 
	d="
M470.895447,701.184204 
	C470.383301,700.454224 469.908600,699.394775 469.751892,698.139099 
	C470.357605,698.913452 470.645233,699.884094 470.895447,701.184204 
z"/>
<path fill="#24BDEB" opacity="1.000000" stroke="none" 
	d="
M477.960327,712.649292 
	C477.475098,712.846985 476.868713,712.751648 476.142609,712.309998 
	C476.628296,712.094543 477.233765,712.225403 477.960327,712.649292 
z"/>
<path fill="#FE6252" opacity="1.000000" stroke="none" 
	d="
M283.690704,426.948578 
	C283.551117,427.332275 283.087494,427.760040 282.267853,428.090393 
	C282.396759,427.659546 282.881714,427.326080 283.690704,426.948578 
z"/>
<path fill="#FE6252" opacity="1.000000" stroke="none" 
	d="
M281.714447,427.968964 
	C281.566162,428.291260 281.099640,428.671265 280.297424,429.010620 
	C280.439880,428.655579 280.918060,428.341125 281.714447,427.968964 
z"/>
<path fill="#24BDEB" opacity="1.000000" stroke="none" 
	d="
M612.726929,648.979492 
	C612.865540,649.339172 612.741516,649.781311 612.257812,650.096680 
	C612.086853,649.667236 612.275574,649.364624 612.726929,648.979492 
z"/>
<path fill="#24BDEB" opacity="1.000000" stroke="none" 
	d="
M480.311920,714.789795 
	C480.031769,714.962830 479.501892,714.928101 478.987000,714.390381 
	C479.355377,714.118958 479.708771,714.350525 480.311920,714.789795 
z"/>
<path fill="#24BDEB" opacity="1.000000" stroke="none" 
	d="
M479.015076,713.704407 
	C478.680054,713.865845 478.259003,713.767944 477.928162,713.283020 
	C478.321899,713.078979 478.625458,713.262024 479.015076,713.704407 
z"/>
<path fill="#FD6252" opacity="1.000000" stroke="none" 
	d="
M621.741394,639.984863 
	C621.855286,640.260071 621.705933,640.614746 621.233276,640.966736 
	C621.099304,640.664124 621.288757,640.364197 621.741394,639.984863 
z"/>
<path fill="#24BDEB" opacity="1.000000" stroke="none" 
	d="
M613.760498,647.885986 
	C613.884155,648.177795 613.747437,648.609497 613.252563,649.020630 
	C613.096313,648.675415 613.298218,648.350647 613.760498,647.885986 
z"/>
<path fill="#FE6252" opacity="1.000000" stroke="none" 
	d="
M166.390045,793.042725 
	C168.707596,783.975647 172.222473,775.016846 173.874908,765.726685 
	C177.132339,747.413086 178.730133,728.798889 182.137970,710.518494 
	C189.483475,671.115723 198.444839,632.090942 214.081085,594.957886 
	C222.137146,575.826294 232.460571,558.068665 246.648499,542.755554 
	C248.436905,540.825317 250.569962,539.214355 252.805847,537.759338 
	C241.944046,554.693848 237.093872,573.481445 235.110748,593.001282 
	C233.234131,611.472839 232.150864,630.032715 231.067184,648.574158 
	C230.381714,660.302551 230.561310,672.080078 229.951309,683.814636 
	C228.915283,703.744446 226.744766,723.422241 217.177856,741.548828 
	C208.373260,758.230957 196.462555,772.072327 181.107559,782.975769 
	C176.347427,786.355957 171.534256,789.661438 166.390045,793.042725 
z"/>
<path fill="#24BEED" opacity="1.000000" stroke="none" 
	d="
M155.372223,802.050842 
	C155.830887,801.247009 156.616440,800.399231 157.744415,799.803162 
	C157.290939,800.705505 156.495026,801.356201 155.372223,802.050842 
z"/>
<path fill="#24BEED" opacity="1.000000" stroke="none" 
	d="
M261.323975,530.047485 
	C261.503937,529.607361 261.995361,529.100281 262.785370,528.823853 
	C262.601135,529.363220 262.118317,529.671875 261.323975,530.047485 
z"/>
<path fill="#FE6252" opacity="1.000000" stroke="none" 
	d="
M254.334213,536.965942 
	C254.143417,536.523438 254.214432,535.989868 254.651215,535.399963 
	C254.876678,535.854004 254.736359,536.364441 254.334213,536.965942 
z"/>
<path fill="#24BEED" opacity="1.000000" stroke="none" 
	d="
M263.284241,529.015747 
	C263.141357,528.716187 263.262207,528.328674 263.742096,527.970337 
	C263.916748,528.308899 263.732361,528.618408 263.284241,529.015747 
z"/>
<path fill="#24BEED" opacity="1.000000" stroke="none" 
	d="
M158.291718,800.014893 
	C158.140732,799.716125 158.252579,799.329712 158.733017,798.971191 
	C158.919250,799.308533 158.736893,799.617859 158.291718,800.014893 
z"/>
<path fill="#24BEED" opacity="1.000000" stroke="none" 
	d="
M159.268906,799.017578 
	C159.157822,798.740662 159.320480,798.378967 159.815216,798.002808 
	C159.945740,798.303162 159.744186,798.617981 159.268906,799.017578 
z"/>
<path fill="#FE6252" opacity="1.000000" stroke="none" 
	d="
M164.095001,794.925537 
	C164.013641,794.580139 164.234085,794.227051 164.773727,793.939575 
	C164.860870,794.309387 164.628830,794.613525 164.095001,794.925537 
z"/>
<path fill="#FE6252" opacity="1.000000" stroke="none" 
	d="
M165.261810,794.012817 
	C165.130035,793.676270 165.264450,793.258606 165.746674,792.926147 
	C165.905640,793.318115 165.716812,793.624878 165.261810,794.012817 
z"/>
<path fill="#FE6252" opacity="1.000000" stroke="none" 
	d="
M253.281616,538.009827 
	C253.125900,537.651184 253.229279,537.208435 253.713303,536.893921 
	C253.909531,537.323303 253.725128,537.624512 253.281616,538.009827 
z"/>
<path fill="#FE6252" opacity="1.000000" stroke="none" 
	d="
M126.687950,15.948990 
	C126.551384,16.331755 126.091507,16.759623 125.271973,17.090805 
	C125.396431,16.660778 125.880531,16.327435 126.687950,15.948990 
z"/>
<path fill="#24BEED" opacity="1.000000" stroke="none" 
	d="
M110.614304,25.066628 
	C110.383369,25.606243 109.850456,26.099079 109.131958,26.251871 
	C109.401688,25.614502 109.857002,25.317175 110.614304,25.066628 
z"/>
<path fill="#FE6252" opacity="1.000000" stroke="none" 
	d="
M124.775192,16.996698 
	C124.879089,17.203674 124.746529,17.498474 124.352585,17.858896 
	C124.240372,17.644518 124.389549,17.364519 124.775192,16.996698 
z"/>
<path fill="#24BEED" opacity="1.000000" stroke="none" 
	d="
M568.360474,790.443542 
	C569.187317,789.339661 570.316162,788.480469 571.766357,787.834595 
	C570.945923,788.928040 569.804138,789.808105 568.360474,790.443542 
z"/>
<path fill="#24BEED" opacity="1.000000" stroke="none" 
	d="
M572.303345,788.059814 
	C572.494751,787.547668 573.001953,786.986267 573.790527,786.749329 
	C573.587708,787.386047 573.103394,787.698303 572.303345,788.059814 
z"/>
<path fill="#FD6252" opacity="1.000000" stroke="none" 
	d="
M598.332153,768.034790 
	C598.508179,767.588623 598.996948,767.090698 599.782837,766.818298 
	C599.601624,767.356934 599.123352,767.669983 598.332153,768.034790 
z"/>
<path fill="#24BEED" opacity="1.000000" stroke="none" 
	d="
M575.277161,786.016357 
	C575.160400,785.740295 575.315735,785.375427 575.814087,784.997742 
	C575.954529,785.299133 575.751892,785.613342 575.277161,786.016357 
z"/>
<path fill="#24BEED" opacity="1.000000" stroke="none" 
	d="
M574.296021,787.013550 
	C574.135254,786.693726 574.234375,786.286316 574.718506,785.944458 
	C574.921021,786.315308 574.738464,786.620667 574.296021,787.013550 
z"/>
<path fill="#FD6252" opacity="1.000000" stroke="none" 
	d="
M600.273315,767.010925 
	C600.129517,766.676575 600.249084,766.258911 600.731445,765.925842 
	C600.908447,766.316162 600.722595,766.621887 600.273315,767.010925 
z"/>
<path fill="#FD6252" opacity="1.000000" stroke="none" 
	d="
M601.273804,766.011230 
	C601.129639,765.676453 601.248901,765.258545 601.731323,764.925659 
	C601.908630,765.316467 601.722900,765.622253 601.273804,766.011230 
z"/>
<path fill="#FD6252" opacity="1.000000" stroke="none" 
	d="
M602.275940,765.009888 
	C602.134460,764.703735 602.257935,764.313171 602.737671,763.959961 
	C602.909668,764.306702 602.725342,764.616028 602.275940,765.009888 
z"/>
</svg>
